<svg id="visual" viewBox="0 0 960 300" width="960" height="300" xmlns="http://www.w3.org/2000/svg" xmlns:xlink="http://www.w3.org/1999/xlink" version="1.1"><rect x="0" y="0" width="960" height="300" fill="#A5F2F3"></rect><path d="M0 124L12.3 128.3C24.7 132.7 49.3 141.3 74 152.3C98.7 163.3 123.3 176.7 148 179.3C172.7 182 197.3 174 221.8 170.2C246.3 166.3 270.7 166.7 295.2 171.2C319.7 175.7 344.3 184.3 369 180.3C393.7 176.3 418.3 159.7 443 157.7C467.7 155.7 492.3 168.3 517 163.7C541.7 159 566.3 137 591 130C615.7 123 640.3 131 664.8 129.8C689.3 128.7 713.7 118.3 738.2 106.8C762.7 95.3 787.3 82.7 812 94.3C836.7 106 861.3 142 886 164.5C910.7 187 935.3 196 947.7 200.5L960 205L960 301L947.7 301C935.3 301 910.7 301 886 301C861.3 301 836.7 301 812 301C787.3 301 762.7 301 738.2 301C713.7 301 689.3 301 664.8 301C640.3 301 615.7 301 591 301C566.3 301 541.7 301 517 301C492.3 301 467.7 301 443 301C418.3 301 393.7 301 369 301C344.3 301 319.7 301 295.2 301C270.7 301 246.3 301 221.8 301C197.3 301 172.7 301 148 301C123.3 301 98.7 301 74 301C49.3 301 24.7 301 12.3 301L0 301Z" fill="#fa7268"></path><path d="M0 179L12.3 176.3C24.7 173.7 49.3 168.3 74 158.5C98.7 148.7 123.3 134.3 148 129.2C172.7 124 197.3 128 221.8 132.5C246.3 137 270.7 142 295.2 143.8C319.7 145.7 344.3 144.3 369 139.2C393.7 134 418.3 125 443 136.7C467.7 148.3 492.3 180.7 517 181.8C541.7 183 566.3 153 591 150.5C615.7 148 640.3 173 664.8 178.8C689.3 184.7 713.7 171.3 738.2 172.3C762.7 173.3 787.3 188.7 812 198.5C836.7 208.3 861.3 212.7 886 210.5C910.7 208.3 935.3 199.7 947.7 195.3L960 191L960 301L947.7 301C935.3 301 910.7 301 886 301C861.3 301 836.7 301 812 301C787.3 301 762.7 301 738.2 301C713.7 301 689.3 301 664.8 301C640.3 301 615.7 301 591 301C566.3 301 541.7 301 517 301C492.3 301 467.7 301 443 301C418.3 301 393.7 301 369 301C344.3 301 319.7 301 295.2 301C270.7 301 246.3 301 221.8 301C197.3 301 172.7 301 148 301C123.3 301 98.7 301 74 301C49.3 301 24.7 301 12.3 301L0 301Z" fill="#eb5967"></path><path d="M0 194L12.3 191C24.7 188 49.3 182 74 184.5C98.7 187 123.3 198 148 197.8C172.7 197.7 197.3 186.3 221.8 184C246.3 181.7 270.7 188.3 295.2 185.2C319.7 182 344.3 169 369 176.8C393.7 184.7 418.3 213.3 443 220.3C467.7 227.3 492.3 212.7 517 207.7C541.7 202.7 566.3 207.3 591 206C615.7 204.7 640.3 197.3 664.8 200.8C689.3 204.3 713.7 218.7 738.2 224.5C762.7 230.3 787.3 227.7 812 223.7C836.7 219.7 861.3 214.3 886 204.8C910.7 195.3 935.3 181.7 947.7 174.8L960 168L960 301L947.7 301C935.3 301 910.7 301 886 301C861.3 301 836.7 301 812 301C787.3 301 762.7 301 738.2 301C713.7 301 689.3 301 664.8 301C640.3 301 615.7 301 591 301C566.3 301 541.7 301 517 301C492.3 301 467.7 301 443 301C418.3 301 393.7 301 369 301C344.3 301 319.7 301 295.2 301C270.7 301 246.3 301 221.8 301C197.3 301 172.7 301 148 301C123.3 301 98.7 301 74 301C49.3 301 24.7 301 12.3 301L0 301Z" fill="#da3f67"></path><path d="M0 223L12.3 227C24.7 231 49.3 239 74 242.2C98.7 245.3 123.3 243.7 148 239.2C172.7 234.7 197.3 227.3 221.8 229.7C246.3 232 270.7 244 295.2 243.5C319.7 243 344.3 230 369 226C393.7 222 418.3 227 443 227.5C467.7 228 492.3 224 517 222C541.7 220 566.3 220 591 223.2C615.7 226.3 640.3 232.7 664.8 238.8C689.3 245 713.7 251 738.2 247.5C762.7 244 787.3 231 812 229.8C836.7 228.7 861.3 239.3 886 242.2C910.7 245 935.3 240 947.7 237.5L960 235L960 301L947.7 301C935.3 301 910.7 301 886 301C861.3 301 836.7 301 812 301C787.3 301 762.7 301 738.2 301C713.7 301 689.3 301 664.8 301C640.3 301 615.7 301 591 301C566.3 301 541.7 301 517 301C492.3 301 467.7 301 443 301C418.3 301 393.7 301 369 301C344.3 301 319.7 301 295.2 301C270.7 301 246.3 301 221.8 301C197.3 301 172.7 301 148 301C123.3 301 98.7 301 74 301C49.3 301 24.7 301 12.3 301L0 301Z" fill="#c62368"></path></svg>